<?xml version="1.0" standalone="no"?>
<!DOCTYPE svg PUBLIC "-//W3C//DTD SVG 20010904//EN"
 "http://www.w3.org/TR/2001/REC-SVG-20010904/DTD/svg10.dtd">
<svg version="1.0" xmlns="http://www.w3.org/2000/svg"
 width="359.000000pt" height="359.000000pt" viewBox="0 0 359.000000 359.000000"
 preserveAspectRatio="xMidYMid meet">
<metadata>
Created by potrace 1.11, written by Peter Selinger 2001-2013
</metadata>
<g transform="translate(0.000000,359.000000) scale(0.100000,-0.100000)"
fill="#000000" stroke="none">
<path d="M1765 3582 c-11 -2 -25 -8 -31 -13 -6 -5 -38 -11 -70 -14 -114 -10
-141 -17 -304 -82 -91 -35 -178 -67 -195 -70 -16 -4 -49 -14 -73 -24 -23 -10
-44 -18 -47 -19 -17 0 -195 -97 -270 -147 -183 -121 -394 -334 -519 -526 -38
-58 -104 -193 -112 -228 -2 -10 -6 -29 -9 -41 -3 -13 -8 -41 -11 -63 -3 -22
-7 -51 -10 -64 -5 -24 -5 -242 0 -291 5 -53 19 -116 29 -135 17 -32 19 -156 3
-215 -16 -63 -19 -250 -5 -325 16 -84 17 -89 24 -120 20 -86 94 -252 158 -355
23 -36 44 -67 47 -70 3 -3 25 -29 49 -58 23 -28 47 -49 52 -46 5 3 8 1 7 -5
-5 -17 126 -135 215 -194 167 -112 396 -212 530 -231 20 -4 53 -9 73 -12 54
-8 87 -13 109 -13 11 -1 30 -16 41 -34 16 -24 48 -46 110 -77 49 -24 96 -50
104 -56 8 -7 42 -21 75 -32 70 -24 116 -21 223 14 40 13 78 24 84 24 7 0 84
29 173 64 88 35 192 74 230 86 69 21 255 105 265 120 3 4 15 10 28 14 12 4 22
12 22 17 0 5 5 9 11 9 32 0 178 118 320 260 189 187 321 396 354 556 5 21 10
46 11 54 7 28 18 185 18 245 0 80 -10 174 -23 208 -6 15 -8 27 -5 27 2 0 0 8
-5 18 -13 24 -16 194 -5 267 5 33 9 112 8 175 -1 131 -21 225 -77 360 -31 77
-101 207 -116 220 -4 3 -15 19 -25 35 -27 43 -58 77 -166 185 -90 90 -178 156
-280 212 -25 14 -61 34 -80 45 -42 24 -233 98 -275 107 -48 10 -76 15 -120 21
-22 3 -47 8 -55 10 -8 2 -34 5 -57 7 -24 1 -43 7 -43 12 -1 27 -47 61 -165
121 -119 62 -171 78 -220 67z m415 -376 c233 -27 421 -102 615 -246 87 -64
149 -131 219 -235 72 -109 77 -127 23 -82 -95 77 -245 135 -412 156 -107 14
-347 7 -440 -13 -99 -22 -194 -61 -280 -115 -56 -35 -69 -40 -82 -30 -63 53
-245 128 -378 155 -38 8 -170 18 -235 18 -71 0 -219 -12 -230 -19 -3 -2 -17
-6 -31 -9 -140 -29 -274 -98 -384 -198 -16 -15 -31 -25 -33 -23 -11 10 95 179
153 243 22 25 39 49 38 53 -2 5 1 8 5 6 5 -1 33 20 63 46 60 54 181 137 198
137 6 0 11 4 11 8 0 5 29 18 64 31 89 31 201 35 291 10 101 -28 111 -30 207
-35 48 -2 97 -8 110 -12 13 -5 49 -10 80 -11 65 -3 118 17 187 70 100 77 146
106 165 103 12 -1 46 -5 76 -8z m-870 -800 c78 -13 230 -69 230 -85 0 -14
-123 -162 -129 -154 -18 25 -117 97 -182 132 -82 44 -162 70 -227 74 -23 1
-42 5 -42 8 0 6 55 21 93 25 10 1 19 3 22 5 6 7 187 3 235 -5z m1298 -30 c94
-24 171 -64 230 -119 28 -28 52 -54 52 -59 0 -6 -14 -7 -31 -3 -40 9 -221 9
-276 1 -75 -12 -184 -55 -260 -102 -87 -54 -75 -62 -153 96 l-52 104 28 23
c41 33 129 64 199 70 33 3 61 6 63 7 8 8 147 -4 200 -18z m-696 -499 l45 -85
-24 -28 c-13 -16 -34 -40 -46 -54 -12 -14 -46 -53 -74 -87 -51 -61 -52 -62
-66 -40 -22 34 -117 216 -117 224 0 5 10 19 23 33 12 14 56 65 96 113 l73 89
23 -40 c12 -22 43 -78 67 -125z m-887 103 c33 -11 65 -28 72 -38 10 -17 6 -22
-35 -42 -117 -57 -294 -79 -374 -46 -49 21 -53 30 -28 64 62 83 220 110 365
62z m1864 -230 c56 -15 61 -34 21 -75 -71 -73 -240 -91 -375 -40 -24 9 -55 35
-55 45 0 15 156 73 220 82 44 6 146 0 189 -12z m-1452 -379 c13 -30 22 -60 19
-68 -3 -8 -30 -25 -60 -39 -165 -75 -449 -61 -587 30 -41 27 -119 105 -119
118 0 5 10 6 22 3 25 -9 217 -8 273 0 116 18 200 49 305 113 l64 40 29 -72
c16 -39 40 -95 54 -125z m776 26 c92 -81 262 -161 355 -166 28 -2 9 -18 -35
-30 -129 -36 -364 -3 -470 66 l-22 15 34 47 c41 57 81 101 92 101 4 0 25 -15
46 -33z m807 -424 c-50 -90 -106 -162 -189 -242 -143 -138 -259 -209 -388
-236 -104 -22 -167 -18 -328 20 -54 13 -154 22 -315 27 -53 2 -60 -1 -178 -76
l-124 -79 -91 11 c-118 15 -128 17 -233 47 -171 49 -368 165 -486 287 -64 65
-166 213 -156 224 3 2 40 -16 83 -41 43 -26 99 -55 124 -65 201 -78 526 -85
736 -15 77 26 187 82 224 115 l33 29 42 -29 c74 -50 224 -112 338 -139 127
-30 331 -32 468 -6 14 3 36 7 49 10 87 16 222 72 277 114 12 9 32 23 45 31 13
8 39 30 58 48 19 17 36 30 39 28 2 -3 -10 -31 -28 -63z"/>
</g>
</svg>
